<svg width="137" height="137" viewBox="0 0 137 137" fill="none" xmlns="http://www.w3.org/2000/svg">
<path d="M44.7812 51.2327C40.6067 44.0222 36.8116 37.5707 32.6371 30.7396C32.2576 29.9806 31.4986 29.2216 31.4986 28.4626C31.4986 27.3241 31.1191 25.8061 31.8781 25.0471C32.6371 24.2881 34.1551 24.2881 35.2936 24.6676C36.4321 25.0471 37.1911 26.1856 37.9501 26.9446C42.1247 31.1191 46.2992 35.2937 50.4737 39.4682C51.6122 40.6067 53.1302 41.7452 55.0277 43.6427C56.9252 33.7757 58.8227 24.6676 60.3407 15.5596C61.0997 11.7646 61.4792 7.96956 62.6177 4.17455C62.9972 3.03604 64.5152 1.89754 65.6537 0.759033C66.7922 1.89754 68.3102 3.03604 68.3102 4.55405C69.4488 12.5236 69.8283 20.1136 70.5873 28.0831C70.9668 33.3962 71.3463 38.3297 72.1053 44.0222C76.2798 40.9862 80.4543 37.9502 84.6288 34.9142C86.5263 33.7757 88.0443 32.2577 89.9418 31.4986C91.4598 31.1191 93.7368 31.1191 94.4958 31.4986C95.2548 32.6372 95.2548 34.9142 94.4958 36.4322C90.7008 42.1247 86.9058 47.8172 82.3518 53.8892C88.8033 55.0277 94.4958 55.7867 100.568 56.5457C111.194 58.0637 121.44 59.5817 132.066 61.4793C133.964 61.8588 136.62 61.8588 136.62 64.8948C136.62 67.5513 134.5 67.5 132.066 67.9308C116.127 69.4488 100.568 71.3463 84.6288 73.2438C83.8698 73.2438 83.1108 73.6233 81.9723 74.0028C85.3878 80.8338 88.8033 87.6648 91.8393 94.4959C92.9778 96.7729 94.8754 99.4294 91.8393 101.327C88.8033 103.224 86.9058 100.568 85.0083 98.6704C80.0748 94.1164 75.1413 89.5624 70.5873 85.3878C69.4488 92.5984 67.9307 100.188 66.4127 107.778C64.8947 115.748 63.7562 123.717 62.2382 131.308C61.8587 133.205 61.5 135.31 58.8227 135.103C57.5 135 56 132.5 55.7867 130.928C53.8892 115.368 52.3712 99.8089 50.4737 83.4903C46.2992 86.1468 41.7452 89.1829 37.5706 91.8394C36.0526 92.5984 33.7756 93.3574 32.6371 92.5984C30.3601 91.4599 31.1191 88.8034 32.2576 86.9058C35.2936 81.9723 38.7091 77.0388 42.5042 71.7258L18.9751 67.1718C14.0416 66.4128 9.48754 65.2743 4.55402 64.5153C1.5 64 0 64.1358 0 61.0998C0 58.8642 2.5 58.5 4.93352 58.0637C17.4012 55.8287 30.3601 53.8892 42.8837 51.9917C43.6427 51.9917 44.4017 51.6122 44.7812 51.2327Z" fill="#5203C4"/>
</svg>
